<svg width="222" height="171" viewBox="0 0 222 171" fill="none" xmlns="http://www.w3.org/2000/svg">
<path fill-rule="evenodd" clip-rule="evenodd" d="M100.969 75.8606C103.178 78.4121 105.145 81.1371 106.856 84H57.5C41.7599 84 29 96.7599 29 112.5V113.5C29 129.24 41.7599 142 57.5 142H58.5H101.578H107V171H57.5645C57.5221 171 57.4797 171 57.4374 171H56V170.98C48.2853 170.779 40.6287 169.025 33.5051 165.754C20.941 159.985 10.8764 149.882 5.15492 137.296C-0.566553 124.71 -1.56174 110.484 2.35168 97.224C6.26509 83.9641 14.8251 72.5581 26.4634 65.0957C38.1018 57.6332 52.0393 54.6139 65.7225 56.5909C79.4058 58.568 91.9186 65.4089 100.969 75.8606Z" fill="#EA3946"/>
<path fill-rule="evenodd" clip-rule="evenodd" d="M127 0H83V55.9847C96.1102 61.5764 106.92 71.5197 113.614 84H119L121.22 84L127 84H162L164.5 84C180.24 84 193 96.7599 193 112.5V113.5C193 129.24 180.24 142 164.5 142H163.5H125.792H117V171H164.493H164.507H166V170.98C171.73 170.831 177.441 169.825 182.938 167.964C194.495 164.051 204.508 156.564 211.528 146.585C218.548 136.606 222.212 124.653 221.99 112.454C221.768 100.255 217.672 88.4426 210.293 78.7257C202.914 69.0088 192.636 61.8909 180.944 58.4016C174.766 56.5576 168.362 55.7775 162 56.0544V56H127V0Z" fill="white"/>
<circle cx="58.5" cy="113.5" r="19.5" fill="white"/>
<circle cx="163.5" cy="113.5" r="19.5" fill="#EA3946"/>
</svg>
