<?xml version="1.0" encoding="UTF-8"?>
<svg id="OBJECTS" xmlns="http://www.w3.org/2000/svg" viewBox="0 0 648.1 374.95">
  <defs>
    <style>
      .cls-1 {
        fill: #ffe1c0;
      }

      .cls-2 {
        fill: #ff8a66;
      }

      .cls-3, .cls-4, .cls-5 {
        stroke: #2a1e17;
      }

      .cls-3, .cls-4, .cls-5, .cls-6, .cls-7, .cls-8 {
        stroke-linecap: round;
        stroke-linejoin: round;
      }

      .cls-3, .cls-4, .cls-9, .cls-6, .cls-7, .cls-8 {
        fill: none;
      }

      .cls-10 {
        fill: #ff6d66;
      }

      .cls-4 {
        stroke-width: .67px;
      }

      .cls-11, .cls-5 {
        fill: #fff;
      }

      .cls-12 {
        fill: #96bd89;
      }

      .cls-13 {
        fill: #c6cbcb;
      }

      .cls-14 {
        fill: #f9865f;
      }

      .cls-15 {
        fill: #2a1e17;
      }

      .cls-16 {
        fill: #a0c6f4;
      }

      .cls-17 {
        fill: #7595ec;
      }

      .cls-18 {
        fill: #fad8b0;
      }

      .cls-19 {
        fill: #fff7dc;
      }

      .cls-20 {
        fill: #91ba83;
      }

      .cls-9 {
        stroke: #fad8b0;
        stroke-miterlimit: 10;
      }

      .cls-21 {
        fill: #fff7c9;
      }

      .cls-6 {
        stroke: #2a1e33;
      }

      .cls-7 {
        stroke: #a0c6f4;
      }

      .cls-22 {
        fill: #2a1e33;
      }

      .cls-8 {
        stroke: #ff6d66;
      }
    </style>
  </defs>
  <g>
    <g>
      <g>
        <path class="cls-11" d="M324.66,102.52c-32.4-30.37-70.36-38.2-80.39-39.81,6.76-18.23,17.2-45.33,19.8-49.34,.84-.11,2.55-.29,5.07-.29,7.37,0,23.14,1.53,45.97,11.8,32.95,14.83,41.78,31.51,43.51,35.59l-33.96,42.04ZM264.31,13.03s0,0,0,0Z"/>
        <path class="cls-16" d="M269.14,15.08c7.21,0,22.66,1.51,45.14,11.63,29.81,13.42,39.45,28.41,41.99,33.49l-31.83,39.4c-19.15-17.44-39.8-27.07-54.07-32.14-10.13-3.6-18.41-5.44-23.38-6.33,7.47-20.07,15.59-40.72,18.32-45.89,.89-.08,2.17-.16,3.83-.16m0-4c-4.01,0-6.07,.42-6.07,.42-2.34,.78-21.54,52.84-21.54,52.84,0,0,45.56,4.65,83.32,41.12l36.04-44.62s-6.01-20.26-44.96-37.78c-22.82-10.27-38.73-11.98-46.79-11.98h0Z"/>
      </g>
      <path class="cls-3" d="M248.22,68.39s44.8,4.53,72.41,29.87"/>
      <polygon class="cls-16" points="286.91 66.2 303.62 33.7 320.8 67.59 286.91 66.2"/>
      <polygon class="cls-3" points="290.16 65.74 306.87 33.24 324.05 67.13 290.16 65.74"/>
    </g>
    <path class="cls-3" d="M274.47,9.1s50.23,4.53,81.46,41.63"/>
  </g>
  <path class="cls-15" d="M300.13,153.12c-2.76-2.03-4.57-3.39-4.57-3.39,.76-1.02,12.85-13.9,19.85-24.28,0,0-14.16,28.49-15.28,27.66Z"/>
  <path class="cls-3" d="M128.85,59.25c1.35,2.24,1.94,1.35,5.83,1.05s9.42,2.54,11.37,7.33c1.94,4.79,1.35,5.53,.3,6.13s-8.53,1.5-8.83,2.99"/>
  <g>
    <polygon class="cls-14" points="229.62 302.71 226.13 296.82 213.77 317.43 217.01 319.92 229.62 302.71"/>
    <path class="cls-14" d="M147.52,251.61s-6.41-10.42-3.66-15.52l20.44,2.19-16.78,13.33Z"/>
    <path d="M147.52,251.61l1.22,2.81-3.78,14.72c-.48,1.85,.14,3.82,1.59,5.07h0s18.69-27.63,18.69-27.63c1.78-2.62,1.37-6.15-.95-8.31l-4.18-3.88-12.6,17.21Z"/>
    <path class="cls-22" d="M137.52,76.75c5.85-.14,13.27-.51,11.79-4.96s-7.05-15.58-19.66-12.24c0,0-4.45,3.71,1.11,10.38s6.76,6.81,6.76,6.81Z"/>
    <path class="cls-17" d="M167.15,238.53s-9.99-29.5-1.54-42.45c6.98-10.69,29.77,6.7,32.9,9.04l16.31-29.46s-3.77-5.28-13.01-10.45-47.43-20.65-65.38,7.67c-6.63,10.47-6.73,55.37,5.99,72.58l24.73-6.94Z"/>
    <path class="cls-3" d="M167.15,238.53s-9.99-29.5-1.54-42.45c6.98-10.69,29.77,6.7,32.9,9.04"/>
    <path class="cls-17" d="M214.82,175.66c-7.42,7.81-29.41,45.85-34.36,64.03-6.62,24.32-4.13,44.49,32.23,83.98l17.58-25.6s-12.36-18.77-10.05-36.45c3.34-25.59,21.55-50.4,30.76-66.14l-36.16-19.82Z"/>
    <polygon class="cls-15" points="217.61 178.96 246.84 201.91 255.58 188.63 217.61 178.96"/>
    <path class="cls-2" d="M385.53,154.84c4.56,.98,8.03,2.71,10.42,5.21s1.3,3.8,.43,4.56-4.23-.11-7.16-2.71-3.69-7.06-3.69-7.06Z"/>
    <path class="cls-14" d="M295.56,149.73c.76-1.02,12.85-13.9,19.85-24.28,0,0,21.15,23.7,23.45,24.47,.85,.28,6.04,.22,12.48,.15,10.88-.11,25.35-.22,28.55,1.38,5.1,2.55,8.16,3.82,9.43,7.39s1.78,5.9-1.27,6.12c-3.57,.25-5.86-4.33-5.86-4.33,0,0-2.92,1.76-10.45,4.59,0,0-27.11,10.52-45.23,5.43-4.95-1.39-30.95-20.92-30.95-20.92Z"/>
    <path class="cls-14" d="M131.24,55.06c-2.33,.89-3.74,1.94-2.39,4.19s1.94,1.35,5.83,1.05,9.42,2.54,11.37,7.33c1.94,4.79,1.35,5.53,.3,6.13s-8.53,1.5-8.83,2.99,3.03,5.91,9.91,5.61l1.65-.3s14.47,14.13,16.56,16.23,17.48,12.52,25.96,14.64c6.44,1.61,19.5-.47,27.34-2,3.81-.74,6.39-1.36,6.39-1.36,0,0-5.89-10.6-7.08-26.91,0,0-14.08,2.26-23.44,4.32,0,0-21.84-12.18-32.46-17.56,0,0-9.27-11.37-13.61-12.86s-14.36-2.69-17.5-1.5Z"/>
    <path class="cls-15" d="M218.95,110.93c3.81-.74,6.39-1.36,6.39-1.36,0,0-7.12-8.98-8.32-25.28,0,0-3.22,3.47-2.22,12.7,1.26,11.61,4.14,13.93,4.14,13.93Z"/>
    <path class="cls-21" d="M216.68,82.47s.2,19.92,5.54,28.24l1.91-.77s-25.16,29.43-33.29,48.66c-1.33,3.15,52.23,37.36,60.14,36.88,0,0,26.1-39.83,35.02-51.63l9.59,7.43s18.81-19.05,19.82-25.82c0,0-18.17-22.11-33.04-28.59-14.87-6.47-28.15-17.57-44.12-17.26-13.82,.26-21.58,2.86-21.58,2.86Z"/>
    <polygon class="cls-15" points="295.59 151.28 286 143.84 287.53 139.68 295.59 151.28"/>
    <path class="cls-14" d="M310.18,72.49c-1.68,5.22-6.53,20.33-11.94,22.2s-11.04-.48-11.04-.48l-5.76,2.95c-.64,1.93-5.19,3.59-11.06,3.82-4.35,.17-7-5.42-5.71-9.46,.59-1.86,2.8-11.01,2.8-11.01,0,0,4.66-17.16,8.95-20.71s8.32-7.05,19.77-2.43c17.54,7.09,13.99,15.11,13.99,15.11Z"/>
    <path class="cls-22" d="M275.42,73.23c-.77,3.21-4.11,9.62-6.29,8.47s-2.95-4.11-1.41-9.75,2.82-18.48,7.18-20.78,6.29,.38,6.29,.38c0,0-1.92-9.37,3.72-10.65,0,0,1.92-.9,1.15,5.52,0,0,2.18-5.9,9.24-5.13s9.49,10.65,9.49,10.65c0,0,.51-2.69,3.72-2.69s8.08,4.75,6.93,10.01c0,0,8.21-2.57,12.57,3.98,4.36,6.54,3.85,13.73-6.67,16.55-11,2.95-10.91-9.88-12.57-11.55s-3.46-3.59-9.62-1.28-12.57-4.49-12.57-4.49c0,0-1.03,8.21-2.05,8.98s-3.08,1.8-2.57-2.05,1.15-3.46,.77-4.49-2.12-4.26-5.77-1.41c-4.11,3.21-1.54,9.75-1.54,9.75Z"/>
    <path class="cls-6" d="M277.16,74.67c-2.45-2.06-4.14-5.68-1.99-9.3s5.68-4.11,6.75-2.74,1.49,3.68,.48,6.42"/>
    <path d="M217.01,319.92l1.22,2.81-3.78,14.72c-.48,1.85,.14,3.82,1.59,5.07h0s18.69-27.63,18.69-27.63c1.78-2.62,1.37-6.15-.95-8.31l-4.18-3.88-12.6,17.21Z"/>
    <path class="cls-6" d="M281.19,51.55s-1.43-4.66-5.72-5.88"/>
    <line class="cls-3" x1="190.25" y1="157.19" x2="242.03" y2="84.86"/>
    <path class="cls-3" d="M263.38,89.92c-1.87,2.43-2.72,12.86,5.87,13.54s14.07-3.09,14.07-3.09"/>
    <path class="cls-3" d="M148.74,56.56s5.92,7.83,6.85,10.62"/>
    <path class="cls-3" d="M370.36,161.59s3.95,3.26,11.83-.96c2.86-1.53,.82-5.14-2.79-4.24s-7.91-.45-7.91-.45"/>
    <path class="cls-3" d="M386.88,155.29s3.79,4.43,3.69,7.06"/>
    <path class="cls-3" d="M331.05,154.81s3.43-4.57,7.82-4.88"/>
    <path class="cls-3" d="M186.39,94.37s2-6.24,8.42-7.39"/>
    <path class="cls-3" d="M203.78,189.04l-7.65,14.64s-25.24,42.72-16.68,70.31"/>
    <path class="cls-3" d="M226.14,238.05l24.83-42.57s32.55-47.21,35.88-53.87l11.49-21.25"/>
    <path class="cls-3" d="M193.72,161.73s44.16,32.2,57.26,33.75"/>
    <path class="cls-3" d="M216.68,82.47s-.04,20.21,5.41,28.49"/>
    <path class="cls-3" d="M314,122.25c-1.39,8.33-19.82,25.82-19.82,25.82"/>
  </g>
  <circle class="cls-15" cx="176.44" cy="223.36" r="2.62"/>
  <g>
    <polygon class="cls-3" points="422.48 279.71 421.03 269.68 429.58 275.37 425.11 276.34 422.48 279.71"/>
    <path class="cls-3" d="M138.74,108.48c-16.21-14.3-43,21.37,55.03,134.9,56.55,65.5,100.98,71.37,107,48.58,10.8-40.88-28.2-51.21-13.69-35.2,21.1,23.28,81.12,28.2,125.84,6.47,44.13-21.44,17-54.73,14.26-56.67"/>
    <circle class="cls-15" cx="413.63" cy="263.03" r="2.62"/>
    <line class="cls-3" x1="375.47" y1="284.44" x2="453.2" y2="240.62"/>
    <circle class="cls-15" cx="140.35" cy="110.6" r="2.62"/>
  </g>
  <circle class="cls-10" cx="207.22" cy="56.45" r="5.63"/>
  <path class="cls-16" d="M105.13,13.54c-1.37,0-2.47,1.11-2.47,2.47s1.11,2.47,2.47,2.47,2.47-1.11,2.47-2.47-1.11-2.47-2.47-2.47h0Z"/>
  <circle class="cls-18" cx="436.53" cy="318.25" r="2.47"/>
  <g>
    <path class="cls-22" d="M392.34,206.55l-26.59-12.48c-2.15-1.01-2.11-4.07,.06-5.03l49.46-21.76c.7-.31,1.5-.31,2.2,0l33.98,14.58-59.11,24.69Z"/>
    <path class="cls-13" d="M390.69,165.54c.07,11,1.65,41.01,1.65,41.01l59.11-24.69-1.33-41.75c-.08-2.56-2.74-4.22-5.08-3.15l-50.9,23.19c-2.12,.96-3.47,3.07-3.46,5.4Z"/>
    <path class="cls-3" d="M392.34,206.55l59.11-24.69-1.33-41.75s-.39-4.56-5.08-3.15"/>
    <line class="cls-3" x1="420.95" y1="176.54" x2="424.94" y2="167.11"/>
    <line class="cls-3" x1="424.94" y1="176.54" x2="428.93" y2="167.11"/>
  </g>
  <circle class="cls-10" cx="115.79" cy="276.97" r="2.47"/>
  <circle class="cls-10" cx="324.32" cy="289.23" r="3.44"/>
  <g>
    <path class="cls-19" d="M141.42,313.64c4.02,1.93,15.73,6.8,31.23,6.7,.85,0,1.5,.74,1.4,1.59l-2.16,17.13c-.08,.61-.54,1.1-1.14,1.21-4.38,.82-22.02,3.24-35.22-7.95-.41-.35-.58-.91-.44-1.43l4.36-16.33c.23-.85,1.17-1.29,1.97-.91Z"/>
    <path class="cls-3" d="M142.97,318.68s7.62,10.71,10.34,12.25c2.72,1.53,17.4-7.21,17.4-7.21"/>
    <line class="cls-3" x1="160.51" y1="329.43" x2="168.52" y2="337.66"/>
    <line class="cls-3" x1="149.38" y1="327.84" x2="140.01" y2="330.39"/>
  </g>
  <rect class="cls-1" x="377.72" y="111.05" width="8.95" height="8.95"/>
  <polygon class="cls-16" points="378.93 231.74 381.59 236.35 384.25 240.96 378.93 240.96 373.62 240.96 376.27 236.35 378.93 231.74"/>
  <g>
    <path class="cls-3" d="M163.88,27.67l.69-20.91c-.07-1.95,.72-2.57,1.92-2.84,5.68-1.26,22.95-5.11,41.73,.45,2.43,.72,2.35,2,2.31,3.16l-.67,19.94c-.05,1.46-1.58,2.52-3.29,2.27-5.48-.8-12.94-1.05-20.52-.99-7.83,.07-14.8,.65-19.68,1.59-1.86,.36-2.56-1.03-2.51-2.66Z"/>
    <path class="cls-3" d="M170.2,24.61l10.93-12.8,12.1,11.94c-4.17-1.36-23.03,.85-23.03,.85Z"/>
    <polyline class="cls-3" points="187.83 17.74 196.67 10.66 204.12 15.98 204.4 24.29 193.23 23.75"/>
    <ellipse class="cls-3" cx="172.82" cy="10.65" rx="1.83" ry="2.15" transform="translate(144.84 181.52) rotate(-84.23)"/>
  </g>
  <g>
    <path class="cls-3" d="M375.27,299.37l7.33,13.54c.77,1.21,.5,1.9-.17,2.52-3.14,2.91-12.68,11.78-26.68,15.23-1.81,.45-2.24-.4-2.64-1.15l-6.99-12.91c-.51-.95,.06-2.19,1.24-2.67,3.78-1.53,8.61-4.14,13.4-7,4.95-2.95,9.16-5.91,11.91-8.32,1.05-.92,2.01-.3,2.58,.76Z"/>
    <path class="cls-3" d="M372.39,303.66l-2.19,12.19-12.13-3.09c3.16-.69,14.31-9.11,14.31-9.11Z"/>
    <polyline class="cls-3" points="363.75 314.58 360.76 322.36 354.06 321.75 350.79 316.57 358.08 312.76"/>
    <ellipse class="cls-3" cx="375.92" cy="313.5" rx="1.58" ry="1.34" transform="translate(-96.3 184.65) rotate(-24.56)"/>
  </g>
  <g>
    <g>
      <path class="cls-5" d="M339.57,68.19l29.8,22.8c.65,.5,1.59,.37,2.08-.29l4.5-6.1c.47-.64,.35-1.53-.26-2.02l-29.37-23.5c-.66-.53-1.62-.39-2.11,.29l-4.92,6.8c-.47,.65-.34,1.55,.3,2.03Z"/>
      <polygon class="cls-10" points="341.78 67.17 349 72.24 353.27 67.15 346.04 61.12 341.78 67.17"/>
      <polygon class="cls-18" points="351.72 74.22 358.96 79.96 362.84 75.19 355.55 69.28 351.72 74.22"/>
      <polygon class="cls-16" points="361.39 82.16 368.62 87.23 372.06 82.81 365.22 77.08 361.39 82.16"/>
    </g>
    <g>
      <path class="cls-5" d="M399.02,36.3l6.79,57.06c.15,1.25,1.3,2.14,2.54,1.97l11.5-1.57c1.2-.16,2.05-1.25,1.94-2.45l-5.57-57.34c-.12-1.28-1.3-2.2-2.57-2.01l-12.71,1.86c-1.21,.18-2.06,1.28-1.91,2.5Z"/>
      <polygon class="cls-10" points="402.5 37.64 404.65 50.98 414.79 50.23 413.68 35.86 402.5 37.64"/>
      <polygon class="cls-20" points="405.38 56.08 406.81 70.15 416.19 69.31 414.89 55.01 405.38 56.08"/>
      <polygon class="cls-18" points="406.99 75.18 409.14 88.52 417.67 87.58 416.64 73.95 406.99 75.18"/>
    </g>
    <path class="cls-5" d="M384.2,48.45l18.8,55.27c.32,.95,1.36,1.45,2.3,1.11l11.78-4.24c.91-.33,1.39-1.31,1.1-2.23l-17.66-55.81c-.31-.98-1.37-1.5-2.33-1.14l-12.92,4.79c-.91,.34-1.39,1.34-1.07,2.26Z"/>
    <polygon class="cls-16" points="388.02 49.46 392.9 62.07 402.66 59.22 398.59 45.39 388.02 49.46"/>
    <polygon class="cls-14" points="394.68 66.9 399 80.37 408 77.6 403.76 63.87 394.68 66.9"/>
    <polygon class="cls-18" points="400.22 85.25 405.1 97.85 413.25 95.15 409.41 82.04 400.22 85.25"/>
  </g>
  <g>
    <rect class="cls-17" x="142.08" y="118.26" width="105.91" height="23.81" rx="5.48" ry="5.48"/>
    <rect class="cls-11" x="153.36" y="125.27" width="55.38" height="3.62" rx="1.81" ry="1.81"/>
    <line class="cls-3" x1="153.88" y1="133.59" x2="241.87" y2="133.59"/>
  </g>
  <g>
    <path class="cls-20" d="M105.74,73.83h2.22c.94,0,1.7,.76,1.7,1.7v3.32c0,.94-.76,1.7-1.7,1.7h-2.22v-6.72h0Z" transform="translate(92.05 -54.39) rotate(47.59)"/>
    <rect class="cls-3" x="95.86" y="66.97" width="12.43" height="8.57" rx=".98" ry=".98" transform="translate(118.31 194.67) rotate(-132.41)"/>
  </g>
  <g>
    <rect class="cls-10" x="79.13" y="105.4" width="8.87" height="8.1"/>
    <polyline class="cls-3" points="79.13 100.19 79.13 105.4 73.83 105.4"/>
  </g>
  <g>
    <rect class="cls-18" x="371.38" y="13.93" width="8.87" height="8.1"/>
    <polyline class="cls-3" points="371.38 8.72 371.38 13.93 366.08 13.93"/>
  </g>
  <g>
    <path class="cls-3" d="M131.3,64C39.33,25.88-31.47,99.3,141.89,211.72c13.65,8.85,34.58,11.96,34.58,11.96"/>
    <circle class="cls-15" cx="46.71" cy="66.56" r="2.62"/>
    <g>
      <polygon class="cls-3" points="30.03 52.17 32.9 49.41 39.49 53.19 42.81 63.42 32.68 59.18 30.03 52.17"/>
      <polygon class="cls-3" points="32.9 49.41 30.03 52.17 28.42 50.22 31.17 47.58 32.9 49.41"/>
      <line class="cls-3" x1="42.81" y1="63.42" x2="36.22" y2="56.19"/>
    </g>
  </g>
  <g>
    <path class="cls-5" d="M58.75,247l7.15,36.83c.16,.81,.95,1.33,1.75,1.16l7.41-1.57c.77-.16,1.28-.91,1.14-1.69l-6.37-37.08c-.14-.83-.95-1.37-1.77-1.19l-8.19,1.82c-.78,.17-1.28,.93-1.13,1.72Z"/>
    <polygon class="cls-10" points="61.08 247.7 63.11 256.29 69.68 255.32 68.28 246.01 61.08 247.7"/>
    <polygon class="cls-18" points="63.84 259.58 65.44 268.67 71.51 267.68 69.98 258.42 63.84 259.58"/>
    <polygon class="cls-16" points="65.79 271.94 67.83 280.53 73.34 279.5 72.03 270.68 65.79 271.94"/>
  </g>
  <g>
    <polygon class="cls-3" points="263.44 339.31 293.64 331.23 294.8 334.5 264.25 342.43 263.44 339.31"/>
    <g>
      <line class="cls-3" x1="259.24" y1="335.09" x2="260.12" y2="337.83"/>
      <line class="cls-3" x1="258.39" y1="336.88" x2="260.94" y2="336"/>
    </g>
    <g>
      <line class="cls-3" x1="257.78" y1="345.56" x2="259.42" y2="350.74"/>
      <line class="cls-3" x1="256.38" y1="348.84" x2="260.92" y2="347.4"/>
    </g>
    <g>
      <line class="cls-3" x1="250.87" y1="337.02" x2="253.02" y2="343.88"/>
      <line class="cls-3" x1="248.74" y1="341.29" x2="255.1" y2="339.26"/>
    </g>
  </g>
  <g>
    <polygon class="cls-4" points="43.17 11.15 24.06 2.52 24.85 .34 44.08 9.19 43.17 11.15"/>
    <g>
      <line class="cls-4" x1="43.56" y1="15.13" x2="44.27" y2="13.33"/>
      <line class="cls-4" x1="44.76" y1="14.56" x2="43.06" y2="13.93"/>
    </g>
    <g>
      <line class="cls-4" x1="48.76" y1="10.31" x2="50.11" y2="6.93"/>
      <line class="cls-4" x1="50.88" y1="9.2" x2="47.92" y2="8.02"/>
    </g>
    <g>
      <line class="cls-4" x1="48.72" y1="17.68" x2="50.52" y2="13.21"/>
      <line class="cls-4" x1="51.64" y1="16.37" x2="47.48" y2="14.72"/>
    </g>
  </g>
  <g>
    <path class="cls-18" d="M114.61,172.6c-13.47-9.7-26.71-24.78-20.91-40.26,0,0,9.29-6.19,24,1.55l14.71,7.74-17.81,30.97Z"/>
    <g>
      <path class="cls-11" d="M108.5,237.22c-6.06-2.87-31.95-16.34-36.56-39.37-3.98-19.9,11.24-46.72,18.86-58.57-.49,15.73,15.31,29.04,22.93,34.53,7.72,5.56,13.4,8.28,21.23,11.22l-26.46,52.19Z"/>
      <path class="cls-18" d="M89.65,143.96c1.65,10.45,9.63,21.29,23.21,31.07,7.33,5.28,12.85,8.04,20.02,10.81l-25.04,49.39c-7.63-3.81-30.22-16.7-34.41-37.67-3.49-17.47,8.35-40.64,16.23-53.6m4.06-11.63s-28.65,38.71-23.23,65.81c5.42,27.1,38.71,41.04,38.71,41.04l27.87-54.97c-8.71-3.19-14.37-5.79-22.45-11.61-13.47-9.7-26.71-24.78-20.91-40.26h0Z"/>
    </g>
    <path class="cls-3" d="M86.17,154.83s1.67,15.55,17.22,23.88"/>
    <line class="cls-3" x1="111.72" y1="184.27" x2="127.27" y2="192.6"/>
    <path class="cls-3" d="M88.39,177.05s5,11.11,21.11,18.33"/>
    <path class="cls-3" d="M75.62,178.71s.56,11.66,8.33,15.55"/>
    <path class="cls-3" d="M93.39,138.17s-1.44,14.98,21.22,34.43"/>
    <path class="cls-3" d="M101.72,140.94s7.22-.56,17.77,7.22"/>
    <path class="cls-3" d="M67.77,188.77c-.46,7.43,.46,34.36,39.46,51.53"/>
  </g>
  <g>
    <path class="cls-20" d="M316.8,173.79l-16.54,33.15s11.22,4.13,2.45,16.99c0,0,20.74,8.6,34.31-13.74,13.57-22.34-20.21-36.41-20.21-36.41Z"/>
    <g>
      <path class="cls-11" d="M278.94,275.11c-8.37,0-17.21-3.42-26.28-10.16l30.95-51.26,18.41,11.59,.12,.05c.17,.07,4.27,1.74,10.05,1.74h0c4.65,0,10.52-1.09,16.23-5.13l-22.62,38.7c-.05,.08-9.79,14.48-26.86,14.48h0Z"/>
      <path class="cls-12" d="M284.1,215.76l17,10.71,.21,.14,.23,.1c.18,.08,4.55,1.86,10.63,1.86,3.55,0,7.77-.6,12.11-2.54l-19.74,33.77c-.65,.94-9.81,13.82-25.61,13.82-7.71,0-15.87-3.05-24.28-9.07l29.45-48.78m52.91-5.57c-7.67,12.62-17.62,15.36-24.83,15.36-5.55,0-9.48-1.63-9.48-1.63l-19.59-12.34-32.43,53.73c10.86,8.37,20.33,11.28,28.26,11.28,18.12,0,28.15-15.22,28.15-15.22l29.92-51.19h0Z"/>
    </g>
    <path class="cls-3" d="M300.26,206.94s12.34,4.36,2.45,16.99"/>
    <path class="cls-3" d="M282.73,210.44s16.81,15.39,26.11,15.29,20.21-2.32,26.65-13.42"/>
    <path class="cls-3" d="M284.79,230.36s11.54,10.24,24.43,6.95"/>
    <path class="cls-3" d="M296.91,245.67s6.05,4.54,14.51,.25"/>
    <path class="cls-3" d="M269.07,251.98s13.96,13.89,35.95,4.73"/>
    <path class="cls-3" d="M276.67,238.43s5.7,4.07,9.27,5.37"/>
    <path class="cls-3" d="M319.64,183.41s12.75,4.17,14.28,20.99"/>
    <path class="cls-3" d="M326.05,204.2s5.87,9.08-4.05,18.17"/>
    <path class="cls-3" d="M251.86,267.86s32.01,27.42,55.25-4.64"/>
  </g>
  <line class="cls-8" x1="20.78" y1="163.44" x2="28.24" y2="163.44"/>
  <line class="cls-8" x1="436.53" y1="73.67" x2="443.99" y2="73.67"/>
  <line class="cls-9" x1="236.38" y1="22.47" x2="243.85" y2="22.47"/>
  <line class="cls-9" x1="450.78" y1="112.38" x2="458.12" y2="113.7"/>
  <line class="cls-7" x1="157.6" y1="298.61" x2="165.07" y2="298.61"/>
  <circle class="cls-20" cx="466.86" cy="205.57" r="2.47"/>
  <circle class="cls-20" cx="2.47" cy="86.95" r="2.47"/>
  <circle class="cls-15" cx="495.62" cy="364.81" r="2.62"/>
  <circle class="cls-15" cx="645.04" cy="276.27" r="2.62"/>
  <path class="cls-3" d="M645.63,275.32s20.59-61.31-71.47-25.14c-95.71,37.61-133.93,116.46-118.25,122.68,15.68,6.22,39.03-7.82,39.03-7.82"/>
</svg>