<svg width="308" height="308" viewBox="0 0 308 308" fill="none" xmlns="http://www.w3.org/2000/svg">
<path fill-rule="evenodd" clip-rule="evenodd" d="M149.155 96.9399C150.813 98.8551 152.289 100.9 153.574 103.049H116.903C104.881 103.049 95.1358 112.795 95.1358 124.816C95.1358 136.838 104.881 146.583 116.903 146.583L117.278 146.583L149.612 146.583L153.682 146.583V168.35H116.585C116.547 168.35 116.51 168.35 116.473 168.35H115.402V168.336C109.611 168.184 103.864 166.868 98.5176 164.413C89.0872 160.082 81.5328 152.499 77.2384 143.052C72.9439 133.606 72.1969 122.928 75.1343 112.975C78.0716 103.022 84.4966 94.4611 93.2323 88.8599C101.968 83.2587 112.429 80.9925 122.7 82.4764C132.97 83.9603 142.362 89.0951 149.155 96.9399Z" fill="#EA3946"/>
<path fill-rule="evenodd" clip-rule="evenodd" d="M168.694 40H135.669V82.0214C145.509 86.2185 153.622 93.6818 158.647 103.049L162.69 103.049H164.356H194.965H196.467C208.488 103.049 218.234 112.795 218.234 124.816C218.234 136.832 208.498 146.573 196.485 146.583L196.467 146.583H196.092H167.788L161.189 146.583V168.35H196.826H196.857H197.968V168.336C202.269 168.223 206.555 167.468 210.681 166.071C219.356 163.135 226.871 157.515 232.14 150.025C237.41 142.535 240.16 133.563 239.993 124.406C239.827 115.25 236.752 106.384 231.213 99.0904C225.675 91.7971 217.96 86.4545 209.185 83.8354C204.547 82.4514 199.741 81.8659 194.965 82.0737V82.0329H168.694V40Z" fill="#40413E"/>
<circle cx="117.279" cy="125.192" r="14.6364" fill="#40413E"/>
<circle cx="196.09" cy="125.192" r="14.6364" fill="#EA3946"/>
<path d="M1.92 230.739C6.336 230.867 6.784 233.299 6.784 235.091C6.784 236.691 6.592 238.355 6.4 240.083C6.208 241.811 6.08 243.539 6.08 245.139C6.08 251.539 10.048 253.843 15.744 253.843H18.048V248.467H16.896C13.952 248.467 12.992 246.675 12.992 243.859C12.992 242.771 13.184 241.555 13.312 240.275C13.44 238.931 13.632 237.459 13.632 235.795C13.696 230.931 11.712 229.075 8.192 228.307V228.179C11.712 227.411 13.696 225.619 13.632 220.755C13.632 219.155 13.44 217.683 13.312 216.403C13.184 215.059 12.992 213.907 12.992 212.755C12.992 209.939 14.016 208.211 16.896 208.211H18.048V202.771H15.808C9.856 202.771 6.08 205.395 6.08 211.411C6.08 213.011 6.208 214.739 6.4 216.467C6.592 218.195 6.784 219.859 6.784 221.459C6.784 223.379 6.336 225.683 1.92 225.811V230.739ZM305.526 225.811C301.174 225.683 300.662 223.379 300.662 221.459C300.662 219.859 300.854 218.195 301.046 216.467C301.238 214.739 301.43 213.011 301.43 211.411C301.43 205.395 297.654 202.771 291.638 202.771H289.398V208.211H290.55C293.43 208.275 294.454 209.939 294.454 212.755C294.454 213.907 294.326 215.059 294.134 216.403C294.006 217.683 293.814 219.155 293.814 220.755C293.75 225.619 295.734 227.411 299.318 228.179V228.307C295.734 229.075 293.75 230.931 293.814 235.795C293.814 237.459 294.006 238.931 294.134 240.275C294.326 241.555 294.454 242.771 294.454 243.859C294.454 246.675 293.494 248.403 290.55 248.467H289.398V253.843H291.702C297.462 253.843 301.43 251.539 301.43 245.139C301.43 243.539 301.238 241.811 301.046 240.083C300.854 238.355 300.662 236.691 300.662 235.091C300.662 233.299 301.174 230.867 305.526 230.739V225.811Z" fill="#EA3946"/>
<path d="M69.4145 237.843C67.4945 238.611 64.2305 239.251 61.2865 239.251C52.5825 239.251 47.4625 233.811 47.4625 225.171C47.4625 215.571 53.4785 210.899 61.2225 210.899C64.6785 210.899 67.4305 211.667 69.4145 212.499L71.3985 204.755C69.6705 203.859 65.8305 202.835 60.7745 202.835C47.7185 202.835 37.2225 211.027 37.2225 225.747C37.2225 238.035 44.9025 247.315 59.8145 247.315C65.0625 247.315 69.0945 246.355 70.8865 245.459L69.4145 237.843ZM91.6335 214.675C81.5855 214.675 74.9295 221.139 74.9295 231.251C74.9295 241.363 81.9695 247.379 91.1215 247.379C99.5055 247.379 107.633 242.131 107.633 230.675C107.633 221.267 101.233 214.675 91.6335 214.675ZM91.3775 221.587C95.7935 221.587 97.5855 226.323 97.5855 230.995C97.5855 236.627 95.1535 240.403 91.3775 240.403C87.2175 240.403 84.9775 236.371 84.9775 230.995C84.9775 226.387 86.7055 221.587 91.3775 221.587ZM135.414 201.235V218.195H135.286C133.878 216.019 130.87 214.675 127.03 214.675C119.542 214.675 112.95 220.755 113.014 231.315C113.014 241.043 118.966 247.379 126.39 247.379C130.422 247.379 134.198 245.587 136.182 242.067H136.31L136.758 246.675H145.398C145.27 244.563 145.142 240.851 145.142 237.331V201.235H135.414ZM135.414 232.723C135.414 233.555 135.35 234.259 135.158 234.963C134.582 237.715 132.342 239.635 129.526 239.635C125.494 239.635 122.87 236.307 122.87 230.995C122.87 226.067 125.174 222.099 129.59 222.099C132.598 222.099 134.71 224.275 135.286 226.899C135.35 227.411 135.414 228.115 135.414 228.627V232.723ZM181.54 234.131C181.668 233.427 181.86 231.955 181.86 230.291C181.86 222.547 178.02 214.675 167.908 214.675C157.028 214.675 152.1 223.443 152.1 231.379C152.1 241.171 158.18 247.315 168.804 247.315C173.028 247.315 176.932 246.675 180.132 245.395L178.852 238.803C176.228 239.635 173.54 240.083 170.212 240.083C165.668 240.083 161.7 238.163 161.38 234.131H181.54ZM161.316 227.475C161.572 224.851 163.236 221.139 167.332 221.139C171.812 221.139 172.836 225.107 172.836 227.475H161.316ZM189.624 246.547C191.48 246.803 194.424 247.059 198.264 247.059C205.304 247.059 210.168 245.779 213.176 243.027C215.352 240.915 216.824 238.099 216.824 234.387C216.824 227.987 212.024 224.595 207.928 223.571V223.443C212.472 221.779 215.224 218.131 215.224 213.971C215.224 210.579 213.88 208.019 211.64 206.355C208.952 204.179 205.368 203.219 199.8 203.219C195.896 203.219 192.056 203.603 189.624 204.115V246.547ZM195.192 207.891C196.088 207.699 197.56 207.507 200.12 207.507C205.752 207.507 209.592 209.491 209.592 214.547C209.592 218.707 206.136 221.779 200.248 221.779H195.192V207.891ZM195.192 226.003H199.8C205.88 226.003 210.936 228.435 210.936 234.323C210.936 240.595 205.624 242.707 199.864 242.707C197.88 242.707 196.28 242.643 195.192 242.451V226.003ZM230.712 246.675V215.699H225.08V246.675H230.712ZM227.896 203.475C225.848 203.475 224.376 205.011 224.376 206.995C224.376 208.915 225.784 210.451 227.768 210.451C230.008 210.451 231.416 208.915 231.352 206.995C231.352 205.011 230.008 203.475 227.896 203.475ZM241.039 246.675H246.671V228.051C246.671 227.091 246.799 226.131 247.055 225.427C248.015 222.291 250.895 219.667 254.607 219.667C259.919 219.667 261.775 223.827 261.775 228.819V246.675H267.407V228.179C267.407 217.555 260.751 214.995 256.463 214.995C251.343 214.995 247.759 217.875 246.223 220.819H246.095L245.775 215.699H240.783C240.975 218.259 241.039 220.883 241.039 224.083V246.675Z" fill="#40413E"/>
</svg>
