<svg width="308" height="65" viewBox="0 0 308 65" fill="none" xmlns="http://www.w3.org/2000/svg">
<path d="M1.92 39.064C6.336 39.192 6.784 41.624 6.784 43.416C6.784 45.016 6.592 46.68 6.4 48.408C6.208 50.136 6.08 51.864 6.08 53.464C6.08 59.864 10.048 62.168 15.744 62.168H18.048V56.792H16.896C13.952 56.792 12.992 55 12.992 52.184C12.992 51.096 13.184 49.88 13.312 48.6C13.44 47.256 13.632 45.784 13.632 44.12C13.696 39.256 11.712 37.4 8.192 36.632V36.504C11.712 35.736 13.696 33.944 13.632 29.08C13.632 27.48 13.44 26.008 13.312 24.728C13.184 23.384 12.992 22.232 12.992 21.08C12.992 18.264 14.016 16.536 16.896 16.536H18.048V11.096H15.808C9.856 11.096 6.08 13.72 6.08 19.736C6.08 21.336 6.208 23.064 6.4 24.792C6.592 26.52 6.784 28.184 6.784 29.784C6.784 31.704 6.336 34.008 1.92 34.136V39.064ZM305.526 34.136C301.174 34.008 300.662 31.704 300.662 29.784C300.662 28.184 300.854 26.52 301.046 24.792C301.238 23.064 301.43 21.336 301.43 19.736C301.43 13.72 297.654 11.096 291.638 11.096H289.398V16.536H290.55C293.43 16.6 294.454 18.264 294.454 21.08C294.454 22.232 294.326 23.384 294.134 24.728C294.006 26.008 293.814 27.48 293.814 29.08C293.75 33.944 295.734 35.736 299.318 36.504V36.632C295.734 37.4 293.75 39.256 293.814 44.12C293.814 45.784 294.006 47.256 294.134 48.6C294.326 49.88 294.454 51.096 294.454 52.184C294.454 55 293.494 56.728 290.55 56.792H289.398V62.168H291.702C297.462 62.168 301.43 59.864 301.43 53.464C301.43 51.864 301.238 50.136 301.046 48.408C300.854 46.68 300.662 45.016 300.662 43.416C300.662 41.624 301.174 39.192 305.526 39.064V34.136Z" fill="#EA3946"/>
<path d="M69.4145 46.168C67.4945 46.936 64.2305 47.576 61.2865 47.576C52.5825 47.576 47.4625 42.136 47.4625 33.496C47.4625 23.896 53.4785 19.224 61.2225 19.224C64.6785 19.224 67.4305 19.992 69.4145 20.824L71.3985 13.08C69.6705 12.184 65.8305 11.16 60.7745 11.16C47.7185 11.16 37.2225 19.352 37.2225 34.072C37.2225 46.36 44.9025 55.64 59.8145 55.64C65.0625 55.64 69.0945 54.68 70.8865 53.784L69.4145 46.168ZM91.6335 23C81.5855 23 74.9295 29.464 74.9295 39.576C74.9295 49.688 81.9695 55.704 91.1215 55.704C99.5055 55.704 107.633 50.456 107.633 39C107.633 29.592 101.233 23 91.6335 23ZM91.3775 29.912C95.7935 29.912 97.5855 34.648 97.5855 39.32C97.5855 44.952 95.1535 48.728 91.3775 48.728C87.2175 48.728 84.9775 44.696 84.9775 39.32C84.9775 34.712 86.7055 29.912 91.3775 29.912ZM135.414 9.56V26.52H135.286C133.878 24.344 130.87 23 127.03 23C119.542 23 112.95 29.08 113.014 39.64C113.014 49.368 118.966 55.704 126.39 55.704C130.422 55.704 134.198 53.912 136.182 50.392H136.31L136.758 55H145.398C145.27 52.888 145.142 49.176 145.142 45.656V9.56H135.414ZM135.414 41.048C135.414 41.88 135.35 42.584 135.158 43.288C134.582 46.04 132.342 47.96 129.526 47.96C125.494 47.96 122.87 44.632 122.87 39.32C122.87 34.392 125.174 30.424 129.59 30.424C132.598 30.424 134.71 32.6 135.286 35.224C135.35 35.736 135.414 36.44 135.414 36.952V41.048ZM181.54 42.456C181.668 41.752 181.86 40.28 181.86 38.616C181.86 30.872 178.02 23 167.908 23C157.028 23 152.1 31.768 152.1 39.704C152.1 49.496 158.18 55.64 168.804 55.64C173.028 55.64 176.932 55 180.132 53.72L178.852 47.128C176.228 47.96 173.54 48.408 170.212 48.408C165.668 48.408 161.7 46.488 161.38 42.456H181.54ZM161.316 35.8C161.572 33.176 163.236 29.464 167.332 29.464C171.812 29.464 172.836 33.432 172.836 35.8H161.316ZM189.624 54.872C191.48 55.128 194.424 55.384 198.264 55.384C205.304 55.384 210.168 54.104 213.176 51.352C215.352 49.24 216.824 46.424 216.824 42.712C216.824 36.312 212.024 32.92 207.928 31.896V31.768C212.472 30.104 215.224 26.456 215.224 22.296C215.224 18.904 213.88 16.344 211.64 14.68C208.952 12.504 205.368 11.544 199.8 11.544C195.896 11.544 192.056 11.928 189.624 12.44V54.872ZM195.192 16.216C196.088 16.024 197.56 15.832 200.12 15.832C205.752 15.832 209.592 17.816 209.592 22.872C209.592 27.032 206.136 30.104 200.248 30.104H195.192V16.216ZM195.192 34.328H199.8C205.88 34.328 210.936 36.76 210.936 42.648C210.936 48.92 205.624 51.032 199.864 51.032C197.88 51.032 196.28 50.968 195.192 50.776V34.328ZM230.712 55V24.024H225.08V55H230.712ZM227.896 11.8C225.848 11.8 224.376 13.336 224.376 15.32C224.376 17.24 225.784 18.776 227.768 18.776C230.008 18.776 231.416 17.24 231.352 15.32C231.352 13.336 230.008 11.8 227.896 11.8ZM241.039 55H246.671V36.376C246.671 35.416 246.799 34.456 247.055 33.752C248.015 30.616 250.895 27.992 254.607 27.992C259.919 27.992 261.775 32.152 261.775 37.144V55H267.407V36.504C267.407 25.88 260.751 23.32 256.463 23.32C251.343 23.32 247.759 26.2 246.223 29.144H246.095L245.775 24.024H240.783C240.975 26.584 241.039 29.208 241.039 32.408V55Z" fill="#40413E"/>
</svg>
