<svg width="222" height="222" viewBox="0 0 222 222" fill="none" xmlns="http://www.w3.org/2000/svg">
<path fill-rule="evenodd" clip-rule="evenodd" d="M100.969 100.861C103.178 103.412 105.145 106.137 106.856 109H57.5C41.7599 109 29 121.76 29 137.5V138.5C29 154.24 41.7599 167 57.5 167H58.5H101.578H107V196H57.5645C57.5221 196 57.4797 196 57.4374 196H56V195.98C48.2853 195.779 40.6287 194.025 33.5051 190.754C20.941 184.985 10.8764 174.882 5.15492 162.296C-0.566553 149.71 -1.56174 135.484 2.35168 122.224C6.26509 108.964 14.8251 97.5581 26.4634 90.0957C38.1018 82.6332 52.0393 79.6139 65.7225 81.5909C79.4058 83.568 91.9186 90.4089 100.969 100.861Z" fill="#EA3946"/>
<path fill-rule="evenodd" clip-rule="evenodd" d="M127 25H83V80.9847C96.1102 86.5764 106.92 96.5197 113.614 109H119L121.22 109L127 109H162L164.5 109C180.24 109 193 121.76 193 137.5V138.5C193 154.24 180.24 167 164.5 167H163.5H125.792H117V196H164.493H164.507H166V195.98C171.73 195.831 177.441 194.825 182.938 192.964C194.495 189.051 204.508 181.564 211.528 171.585C218.548 161.606 222.212 149.653 221.99 137.454C221.768 125.255 217.672 113.443 210.293 103.726C202.914 94.0088 192.636 86.8909 180.944 83.4016C174.766 81.5576 168.362 80.7775 162 81.0544V81H127V25Z" fill="#40413E"/>
<circle cx="58.5" cy="138.5" r="19.5" fill="#40413E"/>
<circle cx="163.5" cy="138.5" r="19.5" fill="#EA3946"/>
</svg>
