<svg width="406" height="67" viewBox="0 0 406 67" fill="none" xmlns="http://www.w3.org/2000/svg">
<path fill-rule="evenodd" clip-rule="evenodd" d="M39.5608 29.7231C40.4264 30.7228 41.1971 31.7905 41.8675 32.9122H22.7251C16.4498 32.9122 11.3626 37.9994 11.3626 44.2747C11.3626 50.5501 16.4498 55.6373 22.7251 55.6373H22.921H39.7994L39.7995 55.6374H41.924V67H22.5587C22.5393 67 22.5199 67 22.5005 67H21.9415V66.9923C18.9188 66.9134 15.9188 66.2262 13.1277 64.9445C8.20497 62.684 4.26151 58.7255 2.01976 53.7942C-0.221983 48.8629 -0.611909 43.289 0.921417 38.0936C2.45474 32.8982 5.80865 28.4292 10.3687 25.5053C14.9288 22.5814 20.3897 21.3984 25.7509 22.173C31.1122 22.9477 36.0149 25.628 39.5608 29.7231Z" fill="#EA3946"/>
<path fill-rule="evenodd" clip-rule="evenodd" d="M49.7602 0H32.5205V21.9355C37.6572 24.1264 41.8925 28.0223 44.5153 32.9123L46.6257 32.9123L47.4954 32.9123H49.7602L63.4737 32.9123L64.2573 32.9123C70.5326 32.9123 75.6198 37.9995 75.6198 44.2748C75.6198 50.5502 70.5326 55.6374 64.2573 55.6374H64.0614H49.287H45.8421V67H64.433H64.4733H65.0409V66.9923C67.2861 66.9337 69.5237 66.5394 71.6775 65.8103C76.2056 64.2773 80.1287 61.3438 82.8793 57.4339C85.63 53.524 87.0657 48.8405 86.9787 44.0608C86.8917 39.2811 85.2866 34.6529 82.3955 30.8457C79.5043 27.0385 75.4771 24.2496 70.8963 22.8825C68.4755 22.16 65.9665 21.8543 63.4737 21.9628V21.9415H49.7602V0Z" fill="white"/>
<circle cx="22.9211" cy="44.4707" r="7.64035" fill="white"/>
<circle cx="64.0612" cy="44.4707" r="7.64035" fill="#EA3946"/>
<path d="M99.4112 40.064C103.827 40.192 104.275 42.624 104.275 44.416C104.275 46.016 104.083 47.68 103.891 49.408C103.699 51.136 103.571 52.864 103.571 54.464C103.571 60.864 107.539 63.168 113.235 63.168H115.539V57.792H114.387C111.443 57.792 110.483 56 110.483 53.184C110.483 52.096 110.675 50.88 110.803 49.6C110.931 48.256 111.123 46.784 111.123 45.12C111.187 40.256 109.203 38.4 105.683 37.632V37.504C109.203 36.736 111.187 34.944 111.123 30.08C111.123 28.48 110.931 27.008 110.803 25.728C110.675 24.384 110.483 23.232 110.483 22.08C110.483 19.264 111.507 17.536 114.387 17.536H115.539V12.096H113.299C107.347 12.096 103.571 14.72 103.571 20.736C103.571 22.336 103.699 24.064 103.891 25.792C104.083 27.52 104.275 29.184 104.275 30.784C104.275 32.704 103.827 35.008 99.4112 35.136V40.064ZM403.017 35.136C398.665 35.008 398.153 32.704 398.153 30.784C398.153 29.184 398.345 27.52 398.537 25.792C398.729 24.064 398.921 22.336 398.921 20.736C398.921 14.72 395.145 12.096 389.129 12.096H386.889V17.536H388.041C390.921 17.6 391.945 19.264 391.945 22.08C391.945 23.232 391.817 24.384 391.625 25.728C391.497 27.008 391.305 28.48 391.305 30.08C391.241 34.944 393.225 36.736 396.809 37.504V37.632C393.225 38.4 391.241 40.256 391.305 45.12C391.305 46.784 391.497 48.256 391.625 49.6C391.817 50.88 391.945 52.096 391.945 53.184C391.945 56 390.985 57.728 388.041 57.792H386.889V63.168H389.193C394.953 63.168 398.921 60.864 398.921 54.464C398.921 52.864 398.729 51.136 398.537 49.408C398.345 47.68 398.153 46.016 398.153 44.416C398.153 42.624 398.665 40.192 403.017 40.064V35.136Z" fill="#EA3946"/>
<path d="M166.906 47.168C164.986 47.936 161.722 48.576 158.778 48.576C150.074 48.576 144.954 43.136 144.954 34.496C144.954 24.896 150.97 20.224 158.714 20.224C162.17 20.224 164.922 20.992 166.906 21.824L168.89 14.08C167.162 13.184 163.322 12.16 158.266 12.16C145.21 12.16 134.714 20.352 134.714 35.072C134.714 47.36 142.394 56.64 157.306 56.64C162.554 56.64 166.586 55.68 168.378 54.784L166.906 47.168ZM189.125 24C179.077 24 172.421 30.464 172.421 40.576C172.421 50.688 179.461 56.704 188.613 56.704C196.997 56.704 205.125 51.456 205.125 40C205.125 30.592 198.725 24 189.125 24ZM188.869 30.912C193.285 30.912 195.077 35.648 195.077 40.32C195.077 45.952 192.645 49.728 188.869 49.728C184.709 49.728 182.469 45.696 182.469 40.32C182.469 35.712 184.197 30.912 188.869 30.912ZM232.906 10.56V27.52H232.778C231.37 25.344 228.362 24 224.522 24C217.034 24 210.442 30.08 210.506 40.64C210.506 50.368 216.458 56.704 223.882 56.704C227.914 56.704 231.69 54.912 233.674 51.392H233.802L234.25 56H242.89C242.762 53.888 242.634 50.176 242.634 46.656V10.56H232.906ZM232.906 42.048C232.906 42.88 232.842 43.584 232.65 44.288C232.074 47.04 229.834 48.96 227.018 48.96C222.986 48.96 220.362 45.632 220.362 40.32C220.362 35.392 222.666 31.424 227.082 31.424C230.09 31.424 232.202 33.6 232.778 36.224C232.842 36.736 232.906 37.44 232.906 37.952V42.048ZM279.031 43.456C279.159 42.752 279.351 41.28 279.351 39.616C279.351 31.872 275.511 24 265.399 24C254.519 24 249.591 32.768 249.591 40.704C249.591 50.496 255.671 56.64 266.295 56.64C270.519 56.64 274.423 56 277.623 54.72L276.343 48.128C273.719 48.96 271.031 49.408 267.703 49.408C263.159 49.408 259.191 47.488 258.871 43.456H279.031ZM258.807 36.8C259.063 34.176 260.727 30.464 264.823 30.464C269.303 30.464 270.327 34.432 270.327 36.8H258.807ZM287.115 55.872C288.971 56.128 291.915 56.384 295.755 56.384C302.795 56.384 307.659 55.104 310.667 52.352C312.843 50.24 314.315 47.424 314.315 43.712C314.315 37.312 309.515 33.92 305.419 32.896V32.768C309.963 31.104 312.715 27.456 312.715 23.296C312.715 19.904 311.371 17.344 309.131 15.68C306.443 13.504 302.859 12.544 297.291 12.544C293.387 12.544 289.547 12.928 287.115 13.44V55.872ZM292.683 17.216C293.579 17.024 295.051 16.832 297.611 16.832C303.243 16.832 307.083 18.816 307.083 23.872C307.083 28.032 303.627 31.104 297.739 31.104H292.683V17.216ZM292.683 35.328H297.291C303.371 35.328 308.427 37.76 308.427 43.648C308.427 49.92 303.115 52.032 297.355 52.032C295.371 52.032 293.771 51.968 292.683 51.776V35.328ZM328.203 56V25.024H322.571V56H328.203ZM325.387 12.8C323.339 12.8 321.867 14.336 321.867 16.32C321.867 18.24 323.275 19.776 325.259 19.776C327.499 19.776 328.907 18.24 328.843 16.32C328.843 14.336 327.499 12.8 325.387 12.8ZM338.531 56H344.163V37.376C344.163 36.416 344.291 35.456 344.547 34.752C345.507 31.616 348.387 28.992 352.099 28.992C357.411 28.992 359.267 33.152 359.267 38.144V56H364.899V37.504C364.899 26.88 358.243 24.32 353.955 24.32C348.835 24.32 345.251 27.2 343.715 30.144H343.587L343.267 25.024H338.275C338.467 27.584 338.531 30.208 338.531 33.408V56Z" fill="white"/>
</svg>
